M48
;Layer_Color=9474304
;FILE_FORMAT=2:4
INCH,TZ
;TYPE=PLATED
T2F00S00C0.0256
T3F00S00C0.0280
T4F00S00C0.0394
T5F00S00C0.0984
%
T02
X4961Y12017
X7236
T03
X2968Y306
X3598Y316
X5567Y346
X3953Y2590
X3362
X2732
X5242Y4893
X5075Y8525
X6039Y5602
X6020Y4893
X6778Y4903
X6787Y346
X6197
X7378
X7969
X8559Y976
X9150
X9071Y10976
Y11704
Y12442
T04
X3087Y5653
Y6653
Y7653
Y8653
X2933Y10984
X7782Y7403
X8781
X8785Y5509
Y4509
Y3509
T05
X1374Y1969
Y12039
X10429
Y1969
M30
