G04 Layer_Color=8388736*
%FSLAX25Y25*%
%MOIN*%
G70*
G01*
G75*
G04:AMPARAMS|DCode=11|XSize=11.81mil|YSize=55.12mil|CornerRadius=2.95mil|HoleSize=0mil|Usage=FLASHONLY|Rotation=270.000|XOffset=0mil|YOffset=0mil|HoleType=Round|Shape=RoundedRectangle|*
%AMROUNDEDRECTD11*
21,1,0.01181,0.04921,0,0,270.0*
21,1,0.00591,0.05512,0,0,270.0*
1,1,0.00591,-0.02461,-0.00295*
1,1,0.00591,-0.02461,0.00295*
1,1,0.00591,0.02461,0.00295*
1,1,0.00591,0.02461,-0.00295*
%
%ADD11ROUNDEDRECTD11*%
G04:AMPARAMS|DCode=12|XSize=11.81mil|YSize=55.12mil|CornerRadius=2.95mil|HoleSize=0mil|Usage=FLASHONLY|Rotation=180.000|XOffset=0mil|YOffset=0mil|HoleType=Round|Shape=RoundedRectangle|*
%AMROUNDEDRECTD12*
21,1,0.01181,0.04921,0,0,180.0*
21,1,0.00591,0.05512,0,0,180.0*
1,1,0.00591,-0.00295,0.02461*
1,1,0.00591,0.00295,0.02461*
1,1,0.00591,0.00295,-0.02461*
1,1,0.00591,-0.00295,-0.02461*
%
%ADD12ROUNDEDRECTD12*%
G04:AMPARAMS|DCode=13|XSize=31.5mil|YSize=39.37mil|CornerRadius=4.72mil|HoleSize=0mil|Usage=FLASHONLY|Rotation=90.000|XOffset=0mil|YOffset=0mil|HoleType=Round|Shape=RoundedRectangle|*
%AMROUNDEDRECTD13*
21,1,0.03150,0.02992,0,0,90.0*
21,1,0.02205,0.03937,0,0,90.0*
1,1,0.00945,0.01496,0.01102*
1,1,0.00945,0.01496,-0.01102*
1,1,0.00945,-0.01496,-0.01102*
1,1,0.00945,-0.01496,0.01102*
%
%ADD13ROUNDEDRECTD13*%
G04:AMPARAMS|DCode=14|XSize=51.18mil|YSize=43.31mil|CornerRadius=5.41mil|HoleSize=0mil|Usage=FLASHONLY|Rotation=270.000|XOffset=0mil|YOffset=0mil|HoleType=Round|Shape=RoundedRectangle|*
%AMROUNDEDRECTD14*
21,1,0.05118,0.03248,0,0,270.0*
21,1,0.04035,0.04331,0,0,270.0*
1,1,0.01083,-0.01624,-0.02018*
1,1,0.01083,-0.01624,0.02018*
1,1,0.01083,0.01624,0.02018*
1,1,0.01083,0.01624,-0.02018*
%
%ADD14ROUNDEDRECTD14*%
G04:AMPARAMS|DCode=15|XSize=31.5mil|YSize=39.37mil|CornerRadius=4.72mil|HoleSize=0mil|Usage=FLASHONLY|Rotation=0.000|XOffset=0mil|YOffset=0mil|HoleType=Round|Shape=RoundedRectangle|*
%AMROUNDEDRECTD15*
21,1,0.03150,0.02992,0,0,0.0*
21,1,0.02205,0.03937,0,0,0.0*
1,1,0.00945,0.01102,-0.01496*
1,1,0.00945,-0.01102,-0.01496*
1,1,0.00945,-0.01102,0.01496*
1,1,0.00945,0.01102,0.01496*
%
%ADD15ROUNDEDRECTD15*%
G04:AMPARAMS|DCode=16|XSize=23.62mil|YSize=43.31mil|CornerRadius=3.54mil|HoleSize=0mil|Usage=FLASHONLY|Rotation=270.000|XOffset=0mil|YOffset=0mil|HoleType=Round|Shape=RoundedRectangle|*
%AMROUNDEDRECTD16*
21,1,0.02362,0.03622,0,0,270.0*
21,1,0.01654,0.04331,0,0,270.0*
1,1,0.00709,-0.01811,-0.00827*
1,1,0.00709,-0.01811,0.00827*
1,1,0.00709,0.01811,0.00827*
1,1,0.00709,0.01811,-0.00827*
%
%ADD16ROUNDEDRECTD16*%
G04:AMPARAMS|DCode=17|XSize=39.37mil|YSize=37.4mil|CornerRadius=5.61mil|HoleSize=0mil|Usage=FLASHONLY|Rotation=270.000|XOffset=0mil|YOffset=0mil|HoleType=Round|Shape=RoundedRectangle|*
%AMROUNDEDRECTD17*
21,1,0.03937,0.02618,0,0,270.0*
21,1,0.02815,0.03740,0,0,270.0*
1,1,0.01122,-0.01309,-0.01407*
1,1,0.01122,-0.01309,0.01407*
1,1,0.01122,0.01309,0.01407*
1,1,0.01122,0.01309,-0.01407*
%
%ADD17ROUNDEDRECTD17*%
G04:AMPARAMS|DCode=18|XSize=39.37mil|YSize=37.4mil|CornerRadius=5.61mil|HoleSize=0mil|Usage=FLASHONLY|Rotation=180.000|XOffset=0mil|YOffset=0mil|HoleType=Round|Shape=RoundedRectangle|*
%AMROUNDEDRECTD18*
21,1,0.03937,0.02618,0,0,180.0*
21,1,0.02815,0.03740,0,0,180.0*
1,1,0.01122,-0.01407,0.01309*
1,1,0.01122,0.01407,0.01309*
1,1,0.01122,0.01407,-0.01309*
1,1,0.01122,-0.01407,-0.01309*
%
%ADD18ROUNDEDRECTD18*%
%ADD19R,0.02362X0.05709*%
%ADD20R,0.01181X0.05709*%
%ADD22R,0.06693X0.06693*%
%ADD23C,0.06693*%
%ADD24O,0.03937X0.06299*%
%ADD25O,0.03937X0.08268*%
%ADD26R,0.06693X0.06693*%
%ADD27C,0.13780*%
%ADD28C,0.05000*%
%ADD29C,0.03740*%
D11*
X43465Y36331D02*
D03*
Y38299D02*
D03*
Y40268D02*
D03*
Y42236D02*
D03*
Y44205D02*
D03*
Y46173D02*
D03*
Y48142D02*
D03*
Y50110D02*
D03*
Y52079D02*
D03*
Y54047D02*
D03*
Y56016D02*
D03*
Y57984D02*
D03*
X78110D02*
D03*
Y56016D02*
D03*
Y54047D02*
D03*
Y52079D02*
D03*
Y50110D02*
D03*
Y48142D02*
D03*
Y46173D02*
D03*
Y44205D02*
D03*
Y42236D02*
D03*
Y40268D02*
D03*
Y38299D02*
D03*
Y36331D02*
D03*
D12*
X49961Y64480D02*
D03*
X51929D02*
D03*
X53898D02*
D03*
X55866D02*
D03*
X57835D02*
D03*
X59803D02*
D03*
X61772D02*
D03*
X63740D02*
D03*
X65709D02*
D03*
X67677D02*
D03*
X69646D02*
D03*
X71614D02*
D03*
Y29835D02*
D03*
X69646D02*
D03*
X67677D02*
D03*
X65709D02*
D03*
X63740D02*
D03*
X61772D02*
D03*
X59803D02*
D03*
X57835D02*
D03*
X55866D02*
D03*
X53898D02*
D03*
X51929D02*
D03*
X49961D02*
D03*
D13*
X57933Y17433D02*
D03*
Y11134D02*
D03*
X31752Y11232D02*
D03*
Y17531D02*
D03*
X65118Y97551D02*
D03*
Y103850D02*
D03*
X56850Y97551D02*
D03*
Y103850D02*
D03*
X38051Y108575D02*
D03*
Y114874D02*
D03*
X87854Y88595D02*
D03*
Y82295D02*
D03*
X82441Y26685D02*
D03*
Y20386D02*
D03*
X70433Y17433D02*
D03*
Y11134D02*
D03*
X35197Y42433D02*
D03*
Y36134D02*
D03*
X35591Y124717D02*
D03*
Y118417D02*
D03*
D14*
X41299Y9756D02*
D03*
Y18811D02*
D03*
X48386Y9756D02*
D03*
Y18811D02*
D03*
D15*
X51339Y107000D02*
D03*
X45039D02*
D03*
X70531Y107098D02*
D03*
X76831D02*
D03*
X39528Y91252D02*
D03*
X45827D02*
D03*
X29291Y47945D02*
D03*
X35591D02*
D03*
X82638Y96370D02*
D03*
X88937D02*
D03*
D16*
X56063Y88693D02*
D03*
Y81213D02*
D03*
Y84953D02*
D03*
X66299Y88693D02*
D03*
Y81213D02*
D03*
D17*
X38051Y95976D02*
D03*
Y103457D02*
D03*
D18*
X73189Y88595D02*
D03*
X80669D02*
D03*
D19*
X73779Y114480D02*
D03*
X70630D02*
D03*
X51339D02*
D03*
X48189D02*
D03*
D20*
X61968D02*
D03*
X63937D02*
D03*
X65905D02*
D03*
X67874D02*
D03*
X60000D02*
D03*
X56063D02*
D03*
X54094D02*
D03*
X58031D02*
D03*
D22*
X30866Y86528D02*
D03*
X87854Y55091D02*
D03*
X29331Y109843D02*
D03*
D23*
X30866Y76528D02*
D03*
Y66528D02*
D03*
Y56528D02*
D03*
X87854Y35091D02*
D03*
Y45091D02*
D03*
X87815Y74028D02*
D03*
D24*
X43976Y134539D02*
D03*
X78091D02*
D03*
D25*
X43976Y118220D02*
D03*
X78091D02*
D03*
D26*
X77815Y74028D02*
D03*
D27*
X104291Y120386D02*
D03*
Y19685D02*
D03*
X13740D02*
D03*
Y120386D02*
D03*
D28*
X67776Y49028D02*
D03*
X60394Y56016D02*
D03*
X60197Y48929D02*
D03*
X52421D02*
D03*
X90709Y124421D02*
D03*
X39528Y25898D02*
D03*
X33622D02*
D03*
X90709Y109756D02*
D03*
Y117039D02*
D03*
X35984Y3161D02*
D03*
X61968Y3457D02*
D03*
X79685D02*
D03*
X50748Y85248D02*
D03*
X73779Y3457D02*
D03*
X67874D02*
D03*
X55669D02*
D03*
X29685Y3063D02*
D03*
X27323Y25898D02*
D03*
X91496Y9756D02*
D03*
X85590D02*
D03*
D29*
X72362Y120169D02*
D03*
X49606D02*
D03*
M02*
